<svg xmlns="http://www.w3.org/2000/svg" viewBox="0 0 64 64" fill="none">
  <defs>
    <linearGradient id="bg" x1="10" y1="8" x2="55" y2="58" gradientUnits="userSpaceOnUse">
      <stop stop-color="#1E1B4B"/>
      <stop offset="0.5" stop-color="#4F46E5"/>
      <stop offset="1" stop-color="#0F172A"/>
    </linearGradient>
    <radialGradient id="glow" cx="0" cy="0" r="1" gradientUnits="userSpaceOnUse" gradientTransform="translate(18 12) rotate(43.152) scale(30.8252 38.0596)">
      <stop stop-color="#67E8F9" stop-opacity="0.38"/>
      <stop offset="1" stop-color="#67E8F9" stop-opacity="0"/>
    </radialGradient>
    <linearGradient id="bubble" x1="22" y1="12" x2="51" y2="35" gradientUnits="userSpaceOnUse">
      <stop stop-color="#8B5CF6"/>
      <stop offset="0.48" stop-color="#6366F1"/>
      <stop offset="1" stop-color="#22D3EE"/>
    </linearGradient>
  </defs>
  <rect x="4" y="4" width="56" height="56" rx="19" fill="url(#bg)"/>
  <rect x="4.5" y="4.5" width="55" height="55" rx="18.5" stroke="#FFFFFF" stroke-opacity="0.08"/>
  <rect x="4" y="4" width="56" height="56" rx="19" fill="url(#glow)"/>
  <path d="M23 18.2C23 14.224 26.224 11 30.2 11H40.8C44.776 11 48 14.224 48 18.2V24.8C48 28.776 44.776 32 40.8 32H35.895L29.135 37.171C28.082 37.977 26.55 37.226 26.55 35.9V31.31C24.414 30.092 23 27.795 23 25.17V18.2Z" fill="url(#bubble)"/>
  <path d="M14 27C14 22.858 17.358 19.5 21.5 19.5H31.5C35.642 19.5 39 22.858 39 27V33C39 37.142 35.642 40.5 31.5 40.5H25.161L18.972 45.16C17.827 46.022 16.2 45.205 16.2 43.772V39.182C14.838 37.812 14 35.924 14 33.84V27Z" fill="white"/>
  <circle cx="22.5" cy="30" r="2.15" fill="#4338CA"/>
  <circle cx="27.75" cy="30" r="2.15" fill="#4338CA"/>
  <circle cx="33" cy="30" r="2.15" fill="#4338CA"/>
  <path d="M45.5 16H50" stroke="#A5F3FC" stroke-width="2.25" stroke-linecap="round"/>
  <path d="M47 21H53" stroke="#A5F3FC" stroke-width="2.25" stroke-linecap="round"/>
</svg>
